<mxfile host="app.diagrams.net" agent="Mozilla/5.0 (Windows NT 10.0; Win64; x64) AppleWebKit/537.36 (KHTML, like Gecko) Chrome/133.0.0.0 Safari/537.36" version="26.0.16">
  <diagram name="Страница — 1" id="2soQ3L1gLjQSivVIIh60">
    <mxGraphModel dx="1235" dy="665" grid="1" gridSize="10" guides="1" tooltips="1" connect="1" arrows="1" fold="1" page="1" pageScale="1" pageWidth="827" pageHeight="1169" math="1" shadow="0">
      <root>
        <mxCell id="0" />
        <mxCell id="1" parent="0" />
        <mxCell id="z6tPute2OEq31XL8ONab-16" style="rounded=0;orthogonalLoop=1;jettySize=auto;html=1;exitX=1;exitY=0.5;exitDx=0;exitDy=0;entryX=0;entryY=0.5;entryDx=0;entryDy=0;" edge="1" parent="1" source="z6tPute2OEq31XL8ONab-1" target="z6tPute2OEq31XL8ONab-10">
          <mxGeometry relative="1" as="geometry" />
        </mxCell>
        <mxCell id="z6tPute2OEq31XL8ONab-1" value="" style="ellipse;whiteSpace=wrap;html=1;aspect=fixed;fillColor=#ffe6cc;strokeColor=#d79b00;" vertex="1" parent="1">
          <mxGeometry x="70" y="100" width="40" height="40" as="geometry" />
        </mxCell>
        <mxCell id="z6tPute2OEq31XL8ONab-17" style="rounded=0;orthogonalLoop=1;jettySize=auto;html=1;entryX=0;entryY=0.5;entryDx=0;entryDy=0;" edge="1" parent="1" source="z6tPute2OEq31XL8ONab-2" target="z6tPute2OEq31XL8ONab-10">
          <mxGeometry relative="1" as="geometry">
            <mxPoint x="400" y="260" as="targetPoint" />
          </mxGeometry>
        </mxCell>
        <mxCell id="z6tPute2OEq31XL8ONab-2" value="" style="ellipse;whiteSpace=wrap;html=1;aspect=fixed;fillColor=#ffe6cc;strokeColor=#d79b00;" vertex="1" parent="1">
          <mxGeometry x="70" y="180" width="40" height="40" as="geometry" />
        </mxCell>
        <mxCell id="z6tPute2OEq31XL8ONab-18" style="edgeStyle=none;rounded=0;orthogonalLoop=1;jettySize=auto;html=1;exitX=1;exitY=0.5;exitDx=0;exitDy=0;" edge="1" parent="1" source="z6tPute2OEq31XL8ONab-3">
          <mxGeometry relative="1" as="geometry">
            <mxPoint x="400" y="260" as="targetPoint" />
          </mxGeometry>
        </mxCell>
        <mxCell id="z6tPute2OEq31XL8ONab-3" value="" style="ellipse;whiteSpace=wrap;html=1;aspect=fixed;fillColor=#ffe6cc;strokeColor=#d79b00;" vertex="1" parent="1">
          <mxGeometry x="70" y="260" width="40" height="40" as="geometry" />
        </mxCell>
        <mxCell id="z6tPute2OEq31XL8ONab-4" value="`X_1`" style="text;html=1;align=center;verticalAlign=middle;whiteSpace=wrap;rounded=0;fontSize=20;" vertex="1" parent="1">
          <mxGeometry x="20" y="105" width="40" height="30" as="geometry" />
        </mxCell>
        <mxCell id="z6tPute2OEq31XL8ONab-5" value="`X_2`" style="text;html=1;align=center;verticalAlign=middle;whiteSpace=wrap;rounded=0;fontSize=20;" vertex="1" parent="1">
          <mxGeometry x="20" y="185" width="40" height="30" as="geometry" />
        </mxCell>
        <mxCell id="z6tPute2OEq31XL8ONab-6" value="`X_3`" style="text;html=1;align=center;verticalAlign=middle;whiteSpace=wrap;rounded=0;fontSize=20;" vertex="1" parent="1">
          <mxGeometry x="20" y="265" width="40" height="30" as="geometry" />
        </mxCell>
        <mxCell id="z6tPute2OEq31XL8ONab-19" style="edgeStyle=none;rounded=0;orthogonalLoop=1;jettySize=auto;html=1;exitX=1;exitY=0.5;exitDx=0;exitDy=0;entryX=0;entryY=0.5;entryDx=0;entryDy=0;" edge="1" parent="1" source="z6tPute2OEq31XL8ONab-7" target="z6tPute2OEq31XL8ONab-10">
          <mxGeometry relative="1" as="geometry" />
        </mxCell>
        <mxCell id="z6tPute2OEq31XL8ONab-7" value="" style="ellipse;whiteSpace=wrap;html=1;aspect=fixed;fillColor=#ffe6cc;strokeColor=#d79b00;" vertex="1" parent="1">
          <mxGeometry x="70" y="435" width="40" height="40" as="geometry" />
        </mxCell>
        <mxCell id="z6tPute2OEq31XL8ONab-8" value="`X_i`" style="text;html=1;align=center;verticalAlign=middle;whiteSpace=wrap;rounded=0;fontSize=20;" vertex="1" parent="1">
          <mxGeometry x="20" y="440" width="40" height="30" as="geometry" />
        </mxCell>
        <mxCell id="z6tPute2OEq31XL8ONab-9" value=".&lt;div&gt;.&lt;/div&gt;&lt;div&gt;.&lt;/div&gt;" style="text;html=1;align=center;verticalAlign=middle;whiteSpace=wrap;rounded=0;fontStyle=1;fontSize=20;" vertex="1" parent="1">
          <mxGeometry x="60" y="350" width="60" height="40" as="geometry" />
        </mxCell>
        <mxCell id="z6tPute2OEq31XL8ONab-26" style="edgeStyle=none;rounded=0;orthogonalLoop=1;jettySize=auto;html=1;exitX=1;exitY=0.5;exitDx=0;exitDy=0;entryX=0;entryY=0.5;entryDx=0;entryDy=0;" edge="1" parent="1" source="z6tPute2OEq31XL8ONab-10" target="z6tPute2OEq31XL8ONab-25">
          <mxGeometry relative="1" as="geometry" />
        </mxCell>
        <mxCell id="z6tPute2OEq31XL8ONab-10" value="S" style="ellipse;whiteSpace=wrap;html=1;aspect=fixed;fillColor=#dae8fc;strokeColor=#6c8ebf;fontStyle=1;fontSize=32;" vertex="1" parent="1">
          <mxGeometry x="404" y="220" width="80" height="80" as="geometry" />
        </mxCell>
        <mxCell id="z6tPute2OEq31XL8ONab-11" value="" style="endArrow=classic;html=1;rounded=0;edgeStyle=orthogonalEdgeStyle;entryX=0.5;entryY=1;entryDx=0;entryDy=0;" edge="1" parent="1" target="z6tPute2OEq31XL8ONab-10">
          <mxGeometry width="50" height="50" relative="1" as="geometry">
            <mxPoint x="270" y="460" as="sourcePoint" />
            <mxPoint x="430" y="290" as="targetPoint" />
          </mxGeometry>
        </mxCell>
        <mxCell id="z6tPute2OEq31XL8ONab-12" value="&lt;font style=&quot;font-size: 24px;&quot;&gt;Входы&lt;/font&gt;" style="text;html=1;align=center;verticalAlign=middle;whiteSpace=wrap;rounded=0;fontStyle=0;fontSize=16;" vertex="1" parent="1">
          <mxGeometry x="40" y="500" width="100" height="30" as="geometry" />
        </mxCell>
        <mxCell id="z6tPute2OEq31XL8ONab-13" value="&lt;font style=&quot;font-size: 24px;&quot;&gt;Смещение&lt;/font&gt;" style="text;html=1;align=center;verticalAlign=middle;whiteSpace=wrap;rounded=0;fontStyle=0;fontSize=16;" vertex="1" parent="1">
          <mxGeometry x="304" y="500" width="100" height="30" as="geometry" />
        </mxCell>
        <mxCell id="z6tPute2OEq31XL8ONab-15" value="`b`" style="text;html=1;align=center;verticalAlign=middle;whiteSpace=wrap;rounded=0;fontSize=20;" vertex="1" parent="1">
          <mxGeometry x="334" y="420" width="40" height="30" as="geometry" />
        </mxCell>
        <mxCell id="z6tPute2OEq31XL8ONab-20" value="`W_1`" style="text;html=1;align=center;verticalAlign=middle;whiteSpace=wrap;rounded=0;fontSize=20;" vertex="1" parent="1">
          <mxGeometry x="150" y="100" width="40" height="30" as="geometry" />
        </mxCell>
        <mxCell id="z6tPute2OEq31XL8ONab-21" value="`W_2`" style="text;html=1;align=center;verticalAlign=middle;whiteSpace=wrap;rounded=0;fontSize=20;" vertex="1" parent="1">
          <mxGeometry x="150" y="170" width="40" height="30" as="geometry" />
        </mxCell>
        <mxCell id="z6tPute2OEq31XL8ONab-22" value="`W_3`" style="text;html=1;align=center;verticalAlign=middle;whiteSpace=wrap;rounded=0;fontSize=20;" vertex="1" parent="1">
          <mxGeometry x="150" y="235" width="40" height="30" as="geometry" />
        </mxCell>
        <mxCell id="z6tPute2OEq31XL8ONab-23" value="`W_i`" style="text;html=1;align=center;verticalAlign=middle;whiteSpace=wrap;rounded=0;fontSize=20;" vertex="1" parent="1">
          <mxGeometry x="150" y="360" width="40" height="30" as="geometry" />
        </mxCell>
        <mxCell id="z6tPute2OEq31XL8ONab-24" style="edgeStyle=none;rounded=0;orthogonalLoop=1;jettySize=auto;html=1;exitX=0.5;exitY=1;exitDx=0;exitDy=0;" edge="1" parent="1" source="z6tPute2OEq31XL8ONab-23" target="z6tPute2OEq31XL8ONab-23">
          <mxGeometry relative="1" as="geometry" />
        </mxCell>
        <mxCell id="z6tPute2OEq31XL8ONab-25" value="" style="ellipse;whiteSpace=wrap;html=1;aspect=fixed;fillColor=#d5e8d4;strokeColor=#82b366;" vertex="1" parent="1">
          <mxGeometry x="760" y="240" width="40" height="40" as="geometry" />
        </mxCell>
        <mxCell id="z6tPute2OEq31XL8ONab-27" value="&lt;span style=&quot;font-size: 24px;&quot;&gt;Выход&lt;/span&gt;" style="text;html=1;align=center;verticalAlign=middle;whiteSpace=wrap;rounded=0;fontStyle=0;fontSize=16;" vertex="1" parent="1">
          <mxGeometry x="730" y="295" width="100" height="30" as="geometry" />
        </mxCell>
        <mxCell id="z6tPute2OEq31XL8ONab-28" value="`Y`" style="text;html=1;align=center;verticalAlign=middle;whiteSpace=wrap;rounded=0;fontSize=20;" vertex="1" parent="1">
          <mxGeometry x="820" y="245" width="40" height="30" as="geometry" />
        </mxCell>
        <mxCell id="z6tPute2OEq31XL8ONab-29" value="`S = sum_(i=1)^nx_i * w_i + b`" style="text;html=1;align=center;verticalAlign=middle;whiteSpace=wrap;rounded=0;fontSize=28;" vertex="1" parent="1">
          <mxGeometry x="470" y="340" width="300" height="110" as="geometry" />
        </mxCell>
        <mxCell id="z6tPute2OEq31XL8ONab-33" value="`Y=F(S)`" style="text;html=1;align=center;verticalAlign=middle;whiteSpace=wrap;rounded=0;fontSize=28;" vertex="1" parent="1">
          <mxGeometry x="484" y="450" width="156" height="50" as="geometry" />
        </mxCell>
        <mxCell id="z6tPute2OEq31XL8ONab-35" value="Математическая модель искусственного нейрона" style="text;html=1;align=center;verticalAlign=middle;whiteSpace=wrap;rounded=0;fontSize=30;" vertex="1" parent="1">
          <mxGeometry x="20" y="10" width="820" height="30" as="geometry" />
        </mxCell>
      </root>
    </mxGraphModel>
  </diagram>
</mxfile>
